HIERARCHY
ROOT pelvis
{
  OFFSET 0 100 0
  CHANNELS 6 Xposition Yposition Zposition Zrotation Xrotation Yrotation
  JOINT pelvis_right_femur
  {
    OFFSET -10.78128 -3.44521 -0.5502486
    CHANNELS 3 Zrotation Xrotation Yrotation
    JOINT right_femur_tibia
    {
      OFFSET -0.8047443 -44.0398 -0.1307829
      CHANNELS 3 Zrotation Xrotation Yrotation
      JOINT right_tibia_foot
      {
        OFFSET 3.006224 -47.83518 -5
        CHANNELS 3 Zrotation Xrotation Yrotation
        End Site
        {
          OFFSET 0 -5 15
        }
      }
    }
  }
  JOINT pelvis_left_femur
  {
    OFFSET 10.78128 -3.44521 -0.5502486
    CHANNELS 3 Zrotation Xrotation Yrotation
    JOINT left_femur_tibia
    {
      OFFSET 0.8047443 -44.0398 -0.1307829
      CHANNELS 3 Zrotation Xrotation Yrotation
      JOINT left_tibia_foot
      {
        OFFSET -4.370144 -48.10324 -4.275266
        CHANNELS 3 Zrotation Xrotation Yrotation
        End Site
        {
          OFFSET 0 -5 15
        }
      }
    }
  }
  JOINT pelvis_spine1
  {
    OFFSET 0 6.468898 -3.129235
    CHANNELS 3 Zrotation Xrotation Yrotation
    JOINT spine1
    {
      OFFSET 0 23.15396 4.99043
      CHANNELS 3 Zrotation Xrotation Yrotation
      JOINT spine2
      {
        OFFSET 0 20.79997 -5.064912
        CHANNELS 3 Zrotation Xrotation Yrotation
        JOINT neck
        {
          OFFSET 0 14.38658 9.616178
          CHANNELS 3 Zrotation Xrotation Yrotation
          End Site
          {
            OFFSET 0 20 0
          }
        }
      }
      JOINT right_manubrium
      {
        OFFSET -5.722621 16.35077 3.967754
        CHANNELS 3 Zrotation Xrotation Yrotation
        JOINT right_clavicle
        {
          OFFSET -13.16364 1.694482 -4.693211
          CHANNELS 3 Zrotation Xrotation Yrotation
          JOINT right_humerus
          {
            OFFSET -28.5034 -0.3100689 -2.792744
            CHANNELS 3 Zrotation Xrotation Yrotation
            JOINT right_radius
            {
              OFFSET -25.15693 0.02248979 -1.271978
              CHANNELS 3 Zrotation Xrotation Yrotation
              End Site
              {
                OFFSET -15 0 0
              }
            }
          }
        }
      }
      JOINT left_manubrium
      {
        OFFSET 5.722621 16.35077 3.967754
        CHANNELS 3 Zrotation Xrotation Yrotation
        JOINT left_clavicle
        {
          OFFSET 13.16364 1.694482 -4.693211
          CHANNELS 3 Zrotation Xrotation Yrotation
          JOINT left_humerus
          {
            OFFSET 29.39168 -1.063119 -2.237045
            CHANNELS 3 Zrotation Xrotation Yrotation
            JOINT left_radius
            {
              OFFSET 24.59957 -0.9528479 0.9047498
              CHANNELS 3 Zrotation Xrotation Yrotation
              End Site
              {
                OFFSET 15 -0 -0
              }
            }
          }
        }
      }
    }
  }
}
MOTION
Frames: 15
Frame Time: 0.0416666666667
399.188 185.8795 620.9237 0.7881691 0.2365798 169.2397 -2.0377 25.74653 15.07164 -0 37.33577 -0 3.602003 -27.11543 -2.607487 1.69092 -33.84625 -10.03216 0 -16.57111 0 -6.877166 -3.260756 18.52788 -1.93996 -1.479725 9.742931 1.225689 7.805978 -3.620698 1.260863 17.81201 5.591695 0.5606011 -20.57643 8.161081 6.418301 -27.9561 11.50868 70.51511 30.28564 4.348987 -0 0 37.9206 -18.93576 16.87307 18.79302 0.4737831 -10.39847 2.303218 -105.8903 23.92828 47.11351 -0 0 4.812146 -10.0517 1.693886 29.69029
398.1358 185.7145 615.3953 0.7856105 0.2449426 169.8485 -2.0377 25.74653 15.07164 -0 37.33577 -0 3.602003 -27.11543 -2.607487 1.69092 -33.84625 -10.03216 0 -16.57111 0 -6.877166 -3.260756 18.52788 -1.93996 -1.479725 9.742931 1.225689 7.805978 -3.620698 1.260863 17.81201 5.591695 0.5606011 -20.57643 8.161081 6.418301 -27.9561 11.50868 70.51511 30.28564 4.348987 -0 0 37.9206 -18.93576 16.87307 18.79302 0.4737831 -10.39847 2.303218 -105.8903 23.92828 47.11351 -0 0 4.812146 -10.0517 1.693886 29.69029
397.0248 185.5494 609.8785 0.7829632 0.2532778 170.4574 -2.0377 25.74653 15.07164 -0 37.33577 -0 3.602003 -27.11543 -2.607487 1.69092 -33.84625 -10.03216 0 -16.57111 0 -6.877166 -3.260756 18.52788 -1.93996 -1.479725 9.742931 1.225689 7.805978 -3.620698 1.260863 17.81201 5.591695 0.5606011 -20.57643 8.161081 6.418301 -27.9561 11.50868 70.51511 30.28564 4.348987 -0 0 37.9206 -18.93576 16.87307 18.79302 0.4737831 -10.39847 2.303218 -105.8903 23.92828 47.11351 -0 0 4.812146 -10.0517 1.693887 29.69029
395.8553 185.3843 604.3738 0.7802275 0.2615844 171.0663 -2.0377 25.74653 15.07164 -0 37.33577 -0 3.602003 -27.11543 -2.607487 1.69092 -33.84625 -10.03216 0 -16.57111 0 -6.877166 -3.260756 18.52788 -1.93996 -1.479725 9.742931 1.225689 7.805978 -3.620698 1.260863 17.81201 5.591695 0.5606011 -20.57643 8.161081 6.418301 -27.9561 11.50868 70.51511 30.28564 4.348987 -0 0 37.9206 -18.93576 16.87307 18.79302 0.4737831 -10.39847 2.303218 -105.8903 23.92828 47.11351 -0 0 4.812146 -10.0517 1.693887 29.69029
394.6273 185.2193 598.8818 0.7774036 0.2698615 171.6752 -2.0377 25.74653 15.07164 -0 37.33577 -0 3.602003 -27.11543 -2.607487 1.69092 -33.84625 -10.03216 0 -16.57111 0 -6.877166 -3.260756 18.52788 -1.93996 -1.479725 9.742931 1.225689 7.805978 -3.620698 1.260863 17.81201 5.591695 0.5606011 -20.57643 8.161081 6.418301 -27.9561 11.50868 70.51511 30.28564 4.348986 -0 0 37.9206 -18.93576 16.87307 18.79302 0.4737832 -10.39847 2.303218 -105.8903 23.92828 47.11351 -0 0 4.812146 -10.0517 1.693887 29.69029
393.341 185.0542 593.4032 0.7744919 0.278108 172.2841 -2.0377 25.74653 15.07164 -0 37.33577 -0 3.602003 -27.11543 -2.607487 1.69092 -33.84625 -10.03216 0 -16.57111 0 -6.877166 -3.260756 18.52788 -1.93996 -1.479725 9.742931 1.225689 7.805978 -3.620698 1.260863 17.81201 5.591695 0.5606011 -20.57643 8.161081 6.418301 -27.9561 11.50868 70.51511 30.28564 4.348987 -0 0 37.9206 -18.93576 16.87307 18.79302 0.4737832 -10.39847 2.303218 -105.8903 23.92828 47.11351 -0 0 4.812146 -10.0517 1.693887 29.69029
391.9966 184.8891 587.9386 0.7714928 0.2863232 172.893 -2.0377 25.74653 15.07164 -0 37.33577 -0 3.602003 -27.11543 -2.607487 1.69092 -33.84625 -10.03216 0 -16.57111 0 -6.877166 -3.260756 18.52788 -1.93996 -1.479725 9.742931 1.225689 7.805978 -3.620698 1.260863 17.81201 5.591695 0.5606011 -20.57643 8.161081 6.418301 -27.9561 11.50868 70.51511 30.28564 4.348987 -0 0 37.9206 -18.93576 16.87307 18.79302 0.4737832 -10.39847 2.303218 -105.8903 23.92828 47.11351 -0 0 4.812146 -10.0517 1.693886 29.69029
390.5942 184.7241 582.4886 0.7684065 0.294506 173.5019 -2.0377 25.74653 15.07164 -0 37.33577 -0 3.602003 -27.11543 -2.607487 1.69092 -33.84625 -10.03216 0 -16.57111 0 -6.877166 -3.260756 18.52788 -1.93996 -1.479725 9.742931 1.225689 7.805978 -3.620698 1.260863 17.81201 5.591695 0.5606011 -20.57643 8.161081 6.418301 -27.9561 11.50868 70.51511 30.28564 4.348987 -0 0 37.9206 -18.93576 16.87307 18.79302 0.4737832 -10.39847 2.303218 -105.8903 23.92828 47.11351 -0 0 4.812146 -10.0517 1.693887 29.69029
389.1339 184.559 577.0538 0.7652334 0.3026555 174.1108 -2.0377 25.74653 15.07164 -0 37.33577 -0 3.602003 -27.11543 -2.607487 1.69092 -33.84625 -10.03216 0 -16.57111 0 -6.877166 -3.260756 18.52788 -1.93996 -1.479725 9.742931 1.225689 7.805978 -3.620698 1.260863 17.81201 5.591695 0.5606011 -20.57643 8.161081 6.418301 -27.9561 11.50868 70.51511 30.28564 4.348987 -0 0 37.9206 -18.93576 16.87307 18.79302 0.4737831 -10.39847 2.303218 -105.8903 23.92828 47.11351 -0 0 4.812146 -10.0517 1.693887 29.69029
387.616 184.3939 571.6348 0.7619739 0.3107709 174.7197 -2.0377 25.74653 15.07164 -0 37.33577 -0 3.602003 -27.11543 -2.607487 1.69092 -33.84625 -10.03216 0 -16.57111 0 -6.877166 -3.260756 18.52788 -1.93996 -1.479725 9.742931 1.225689 7.805978 -3.620698 1.260863 17.81201 5.591695 0.5606011 -20.57643 8.161081 6.418301 -27.9561 11.50868 70.51511 30.28564 4.348986 -0 0 37.9206 -18.93576 16.87307 18.79302 0.4737832 -10.39847 2.303218 -105.8903 23.92828 47.11351 -0 0 4.812146 -10.0517 1.693887 29.69029
386.0405 184.2289 566.2322 0.7586283 0.3188513 175.3285 -2.0377 25.74653 15.07164 -0 37.33577 -0 3.602003 -27.11543 -2.607487 1.69092 -33.84625 -10.03216 0 -16.57111 0 -6.877166 -3.260756 18.52788 -1.93996 -1.479725 9.742931 1.225689 7.805978 -3.620698 1.260863 17.81201 5.591695 0.5606011 -20.57643 8.161081 6.418301 -27.9561 11.50868 70.51511 30.28564 4.348986 -0 0 37.9206 -18.93576 16.87307 18.79302 0.4737832 -10.39847 2.303218 -105.8903 23.92828 47.11351 -0 0 4.812146 -10.0517 1.693887 29.69029
384.4078 184.0638 560.8467 0.7551971 0.3268954 175.9374 -2.0377 25.74653 15.07164 -0 37.33577 -0 3.602003 -27.11543 -2.607487 1.69092 -33.84625 -10.03216 0 -16.57111 0 -6.877166 -3.260756 18.52788 -1.93996 -1.479725 9.742931 1.225689 7.805978 -3.620698 1.260863 17.81201 5.591695 0.5606011 -20.57643 8.161081 6.418301 -27.9561 11.50868 70.51511 30.28564 4.348987 -0 0 37.9206 -18.93576 16.87307 18.79302 0.4737831 -10.39847 2.303218 -105.8903 23.92828 47.11351 -0 0 4.812146 -10.0517 1.693887 29.69029
382.7178 183.8987 555.4789 0.7516805 0.3349029 176.5463 -2.0377 25.74653 15.07164 -0 37.33577 -0 3.602003 -27.11543 -2.607487 1.69092 -33.84625 -10.03216 0 -16.57111 0 -6.877166 -3.260756 18.52788 -1.93996 -1.479725 9.742931 1.225689 7.805978 -3.620698 1.260863 17.81201 5.591695 0.5606011 -20.57643 8.161081 6.418301 -27.9561 11.50868 70.51511 30.28564 4.348987 -0 0 37.9206 -18.93576 16.87307 18.79302 0.4737831 -10.39847 2.303218 -105.8903 23.92828 47.11351 -0 0 4.812146 -10.0517 1.693887 29.69029
380.971 183.7337 550.1293 0.7480791 0.3428723 177.1552 -2.0377 25.74653 15.07164 -0 37.33577 -0 3.602003 -27.11543 -2.607487 1.69092 -33.84625 -10.03216 0 -16.57111 0 -6.877166 -3.260756 18.52788 -1.93996 -1.479725 9.742931 1.225689 7.805978 -3.620698 1.260863 17.81201 5.591695 0.5606011 -20.57643 8.161081 6.418301 -27.9561 11.50868 70.51511 30.28564 4.348987 -0 0 37.9206 -18.93576 16.87307 18.79302 0.4737832 -10.39847 2.303218 -105.8903 23.92828 47.11351 -0 0 4.812146 -10.0517 1.693887 29.69029
379.1673 183.5686 544.7986 0.7443931 0.3508032 177.7641 -2.0377 25.74653 15.07164 -0 37.33577 -0 3.602003 -27.11543 -2.607487 1.69092 -33.84625 -10.03216 0 -16.57111 0 -6.877166 -3.260756 18.52788 -1.93996 -1.479725 9.742931 1.225689 7.805978 -3.620698 1.260863 17.81201 5.591695 0.5606011 -20.57643 8.161081 6.418301 -27.9561 11.50868 70.51511 30.28564 4.348987 -0 0 37.9206 -18.93576 16.87307 18.79302 0.4737832 -10.39847 2.303218 -105.8903 23.92828 47.11351 -0 0 4.812146 -10.0517 1.693886 29.69029
